<?xml version="1.0" encoding="UTF-8"?>
<svg id="a" data-name="Navbar" xmlns="http://www.w3.org/2000/svg" viewBox="0 0 634.73 155.27">
  <g>
    <g>
      <path d="M50.21,54.52h-7.48v-9.2h7.48v-3.68c0-10.46,6.25-15.4,15.23-15.4.88,0,2.91.1,6.6.39v10.26c-1.58-.19-3.17-.29-4.49-.29-3.61,0-4.84,1.55-4.84,5.81v2.9h8.63v9.2h-8.63v40.86h-12.5v-40.86ZM85.24,95.38h-12.5v-50.06h12.5v50.06Z" style="fill: #3b3227;"/>
      <path d="M131.72,62.94h-12.24c-.79-5.71-3.87-8.62-9.24-8.62-7.57,0-10.65,8.13-10.65,16.27s3.08,15.78,10.39,15.78c5.55,0,9.07-3.49,9.95-10.17h12.06c-1.67,13.17-9.77,20.53-21.92,20.53-14.17,0-22.98-11.13-22.98-25.66,0-15.98,8.8-27.11,23.24-27.11,11.62,0,20.77,6.97,21.39,18.98Z" style="fill: #3b3227;"/>
      <path d="M151.36,45.32h9.15v9.2h-9.15v24.79c0,4.65,1.06,5.81,5.28,5.81,1.41,0,2.82-.1,3.87-.39v10.75c-2.11.39-4.93.48-7.39.48-9.59,0-14.26-3.2-14.26-12.1v-29.34h-7.57v-9.2h7.57v-15.01h12.5v15.01Z" style="fill: #3b3227;"/>
      <path d="M174.36,95.38h-12.5v-50.06h12.5v50.06Z" style="fill: #3b3227;"/>
      <path d="M183.43,54.52h-7.48v-9.2h7.48v-3.68c0-10.46,6.25-15.4,15.23-15.4.88,0,2.91.1,6.6.39v10.26c-1.58-.19-3.17-.29-4.49-.29-3.61,0-4.84,1.55-4.84,5.81v2.9h8.63v9.2h-8.63v40.86h-12.5v-40.86ZM222.87,95.38h-12.5V26.24h12.5v69.14Z" style="fill: #d4845b;"/>
      <path d="M247.6,79.6h.18l9.95-34.28h12.94l-19.02,56.36c-2.64,7.84-7.04,11.33-15.49,11.33-2.99,0-5.19-.19-7.83-.48v-11.33c2.64.39,4.84.48,6.6.48,3.52,0,5.55-2.71,5.55-6.29,0-.87-.09-1.74-.53-3.1l-16.02-46.96h13.38l10.3,34.28Z" style="fill: #d4845b;"/>
    </g>
    <rect x="21.56" y="120.43" width="56.75" height="8.66" rx="4.33" ry="4.33" style="fill: #c7dce9;"/>
    <rect x="89.31" y="118.49" width="63.62" height="10.54" rx="5.27" ry="5.27" style="fill: #a6cadd;"/>
    <rect x="165.22" y="116.21" width="71.68" height="12.8" rx="6.4" ry="6.4" style="fill: #8ab5d4;"/>
    <rect x="249.13" y="114.95" width="80.19" height="14.12" rx="7.06" ry="7.06" style="fill: #5a9eca;"/>
    <rect x="341.49" y="113" width="81.32" height="14.68" rx="7.34" ry="7.34" style="fill: none; stroke: #d6cab0; stroke-miterlimit: 10; stroke-width: 1.5px;"/>
    <rect x="432.67" y="113.33" width="81.32" height="14.68" rx="7.34" ry="7.34" style="fill: none; stroke: #d6cab0; stroke-miterlimit: 10; stroke-width: 1.5px;"/>
    <rect x="523.86" y="113.33" width="81.32" height="14.68" rx="7.34" ry="7.34" style="fill: none; stroke: #d6cab0; stroke-miterlimit: 10; stroke-width: 1.5px;"/>
  </g>
  <circle cx="78.99" cy="32.49" r="6.25" style="fill: #5a9eca;"/>
  <circle cx="168.11" cy="32.49" r="6.25" style="fill: #5a9eca;"/>
</svg>